<?xml version="1.0" encoding="UTF-8"?>
<svg version="1.1" xmlns="http://www.w3.org/2000/svg" width="1080" height="1080">
<path d="M0 0 C356.4 0 712.8 0 1080 0 C1080 356.4 1080 712.8 1080 1080 C723.6 1080 367.2 1080 0 1080 C0 723.6 0 367.2 0 0 Z " fill="#0F0D0E" transform="translate(0,0)"/>
<path d="M0 0 C9.55764901 6.24757867 16.61430255 13.98140125 20.60546875 24.703125 C20.96382812 25.62867188 21.3221875 26.55421875 21.69140625 27.5078125 C25.05238031 39.25685857 22.51602021 52.00359362 17.09765625 62.671875 C11.07951089 72.86073505 3.33273309 78.97826188 -7.39453125 83.703125 C-8.38453125 84.198125 -8.38453125 84.198125 -9.39453125 84.703125 C-0.48453125 83.713125 -0.48453125 83.713125 8.60546875 82.703125 C11.0485951 87.5893777 11.5775803 91.32355857 10.60546875 96.703125 C8.99714615 99.49055528 7.143654 101.71729094 4.60546875 103.703125 C3.94546875 103.703125 3.28546875 103.703125 2.60546875 103.703125 C1.61546875 100.403125 0.62546875 97.103125 -0.39453125 93.703125 C-1.05453125 93.703125 -1.71453125 93.703125 -2.39453125 93.703125 C-2.17796875 95.6521875 -2.17796875 95.6521875 -1.95703125 97.640625 C-1.87582031 98.37152344 -1.79460937 99.10242188 -1.7109375 99.85546875 C-1.57566511 101.71452729 -1.57566511 101.71452729 -0.39453125 102.703125 C-0.32247614 104.38921466 -0.31067057 106.07813159 -0.33203125 107.765625 C-0.34105469 108.68472656 -0.35007812 109.60382813 -0.359375 110.55078125 C-0.37097656 111.26105469 -0.38257813 111.97132813 -0.39453125 112.703125 C-10.69609597 117.73046813 -10.69609597 117.73046813 -14.39453125 116.703125 C-15.52787513 115.14882482 -16.66111523 113.5944483 -17.79296875 112.0390625 C-20.63284755 109.67018799 -23.85365806 110.27580139 -27.3828125 110.4921875 C-28.37861328 110.59660156 -28.37861328 110.59660156 -29.39453125 110.703125 C-29.70390625 111.321875 -30.01328125 111.940625 -30.33203125 112.578125 C-31.01953125 113.953125 -31.70703125 115.328125 -32.39453125 116.703125 C-36.92334754 116.88072564 -40.32784619 116.79456303 -44.39453125 114.703125 C-46.39453125 112.703125 -46.39453125 112.703125 -46.62158203 110.82373047 C-46.6111084 110.08010254 -46.60063477 109.33647461 -46.58984375 108.5703125 C-46.58339844 107.76464844 -46.57695313 106.95898438 -46.5703125 106.12890625 C-46.55355469 105.28714844 -46.53679688 104.44539062 -46.51953125 103.578125 C-46.51050781 102.72863281 -46.50148438 101.87914062 -46.4921875 101.00390625 C-46.46858772 98.90352616 -46.43271608 96.80329056 -46.39453125 94.703125 C-47.38453125 97.673125 -48.37453125 100.643125 -49.39453125 103.703125 C-53.87700793 101.46188666 -55.81754592 100.43408098 -57.39453125 95.703125 C-57.66798713 90.87207108 -57.15335172 87.21010246 -55.39453125 82.703125 C-51.76453125 82.703125 -48.13453125 82.703125 -44.39453125 82.703125 C-45.73515625 81.8575 -47.07578125 81.011875 -48.45703125 80.140625 C-56.65041997 74.63127741 -61.80515329 68.43220123 -66.39453125 59.703125 C-66.81089844 58.95546875 -67.22726562 58.2078125 -67.65625 57.4375 C-72.55566275 47.32923791 -71.60506374 34.02065624 -68.48828125 23.47265625 C-63.66994729 11.27194632 -54.68833082 2.27206892 -42.9140625 -3.32421875 C-28.66354168 -8.8255826 -13.13781046 -7.63438351 0 0 Z " fill="#141213" transform="translate(651.39453125,476.296875)"/>
<path d="M0 0 C9.55764901 6.24757867 16.61430255 13.98140125 20.60546875 24.703125 C20.96382812 25.62867188 21.3221875 26.55421875 21.69140625 27.5078125 C25.05238031 39.25685857 22.51602021 52.00359362 17.09765625 62.671875 C11.07951089 72.86073505 3.33273309 78.97826188 -7.39453125 83.703125 C-8.38453125 84.198125 -8.38453125 84.198125 -9.39453125 84.703125 C-0.48453125 83.713125 -0.48453125 83.713125 8.60546875 82.703125 C11.0485951 87.5893777 11.5775803 91.32355857 10.60546875 96.703125 C8.99714615 99.49055528 7.143654 101.71729094 4.60546875 103.703125 C3.94546875 103.703125 3.28546875 103.703125 2.60546875 103.703125 C1.61546875 100.403125 0.62546875 97.103125 -0.39453125 93.703125 C-1.05453125 93.703125 -1.71453125 93.703125 -2.39453125 93.703125 C-2.17796875 95.6521875 -2.17796875 95.6521875 -1.95703125 97.640625 C-1.87582031 98.37152344 -1.79460937 99.10242188 -1.7109375 99.85546875 C-1.57566511 101.71452729 -1.57566511 101.71452729 -0.39453125 102.703125 C-0.32247614 104.38921466 -0.31067057 106.07813159 -0.33203125 107.765625 C-0.34105469 108.68472656 -0.35007812 109.60382813 -0.359375 110.55078125 C-0.37097656 111.26105469 -0.38257813 111.97132813 -0.39453125 112.703125 C-10.69609597 117.73046813 -10.69609597 117.73046813 -14.39453125 116.703125 C-15.52787513 115.14882482 -16.66111523 113.5944483 -17.79296875 112.0390625 C-20.63284755 109.67018799 -23.85365806 110.27580139 -27.3828125 110.4921875 C-28.37861328 110.59660156 -28.37861328 110.59660156 -29.39453125 110.703125 C-29.70390625 111.321875 -30.01328125 111.940625 -30.33203125 112.578125 C-31.01953125 113.953125 -31.70703125 115.328125 -32.39453125 116.703125 C-36.92334754 116.88072564 -40.32784619 116.79456303 -44.39453125 114.703125 C-46.39453125 112.703125 -46.39453125 112.703125 -46.62158203 110.82373047 C-46.6111084 110.08010254 -46.60063477 109.33647461 -46.58984375 108.5703125 C-46.58339844 107.76464844 -46.57695313 106.95898438 -46.5703125 106.12890625 C-46.55355469 105.28714844 -46.53679688 104.44539062 -46.51953125 103.578125 C-46.51050781 102.72863281 -46.50148438 101.87914062 -46.4921875 101.00390625 C-46.46858772 98.90352616 -46.43271608 96.80329056 -46.39453125 94.703125 C-47.38453125 97.673125 -48.37453125 100.643125 -49.39453125 103.703125 C-53.87700793 101.46188666 -55.81754592 100.43408098 -57.39453125 95.703125 C-57.66798713 90.87207108 -57.15335172 87.21010246 -55.39453125 82.703125 C-51.76453125 82.703125 -48.13453125 82.703125 -44.39453125 82.703125 C-45.73515625 81.8575 -47.07578125 81.011875 -48.45703125 80.140625 C-56.65041997 74.63127741 -61.80515329 68.43220123 -66.39453125 59.703125 C-66.81089844 58.95546875 -67.22726562 58.2078125 -67.65625 57.4375 C-72.55566275 47.32923791 -71.60506374 34.02065624 -68.48828125 23.47265625 C-63.66994729 11.27194632 -54.68833082 2.27206892 -42.9140625 -3.32421875 C-28.66354168 -8.8255826 -13.13781046 -7.63438351 0 0 Z M-59.98046875 17.6484375 C-65.78633681 26.2062199 -66.29156725 35.61998612 -65.39453125 45.703125 C-63.29483057 54.85631118 -57.34104388 62.45531632 -49.47875977 67.52783203 C-37.83088431 74.09604949 -24.3993871 74.6291527 -11.39453125 72.703125 C-1.60466019 69.93716034 8.34405567 63.56220703 13.60546875 54.703125 C16.3662308 49.00815406 17.07635711 43.92131288 16.98046875 37.640625 C16.99207031 36.87685547 17.00367188 36.11308594 17.015625 35.32617188 C16.9736906 27.15595217 14.15355973 21.59685008 8.60546875 15.62109375 C-1.6771772 5.76019695 -14.05056852 3.04641875 -27.93408203 3.16235352 C-40.29473904 3.62150389 -51.97179901 7.82499531 -59.98046875 17.6484375 Z " fill="#F3F3F3" transform="translate(651.39453125,476.296875)"/>
<path d="M0 0 C4.27520878 4.10656149 8.5259577 8.4501949 9.3359375 14.515625 C9.45147821 22.60347481 7.91371987 27.6262191 2.625 33.75 C-4.18519727 39.58731194 -9.08173918 41.36666194 -17.921875 41.28125 C-24.79957383 40.65283082 -29.60820966 37.22266959 -34 32 C-38.31746185 26.7761097 -39.78203743 22.47911591 -39.40625 15.66796875 C-38.2490542 8.0683079 -34.17356724 3.46773364 -28.35546875 -1.36328125 C-19.95073632 -7.20338554 -8.11418497 -5.89664374 0 0 Z " fill="#F4F4F4" transform="translate(556,486)"/>
<path d="M0 0 C11.91250341 2.82971426 22.81218488 11.40189076 29.75 21.375 C31.30743789 24.3003192 32.5943936 27.27062099 33.75 30.375 C34.28753906 31.76332031 34.28753906 31.76332031 34.8359375 33.1796875 C38.19691156 44.92873357 35.66055146 57.67546862 30.2421875 68.34375 C24.22404214 78.53261005 16.47726434 84.65013688 5.75 89.375 C4.76 89.87 4.76 89.87 3.75 90.375 C12.66 89.385 12.66 89.385 21.75 88.375 C24.19312635 93.2612527 24.72211155 96.99543357 23.75 102.375 C22.1416774 105.16243028 20.28818525 107.38916594 17.75 109.375 C17.09 109.375 16.43 109.375 15.75 109.375 C14.76 106.075 13.77 102.775 12.75 99.375 C12.09 99.375 11.43 99.375 10.75 99.375 C10.894375 100.674375 11.03875 101.97375 11.1875 103.3125 C11.26871094 104.04339844 11.34992187 104.77429688 11.43359375 105.52734375 C11.56886614 107.38640229 11.56886614 107.38640229 12.75 108.375 C12.82205511 110.06108966 12.83386068 111.75000659 12.8125 113.4375 C12.80347656 114.35660156 12.79445313 115.27570313 12.78515625 116.22265625 C12.77355469 116.93292969 12.76195312 117.64320313 12.75 118.375 C2.44843528 123.40234313 2.44843528 123.40234313 -1.25 122.375 C-2.93732277 120.39239574 -4.60366057 118.3917658 -6.25 116.375 C-8.92108098 115.41952419 -8.92108098 115.41952419 -11.25 115.375 C-11.25 114.055 -11.25 112.735 -11.25 111.375 C-10.321875 111.1275 -9.39375 110.88 -8.4375 110.625 C-4.94422843 109.25508958 -4.12508985 108.520312 -2.25 105.375 C-1.59582845 101.97330794 -1.63745338 98.78370849 -2.25 95.375 C-4.89063642 92.36760852 -7.28959145 90.96172719 -11.25 90.375 C-11.25 88.395 -11.25 86.415 -11.25 84.375 C-10.54617188 84.31183594 -9.84234375 84.24867188 -9.1171875 84.18359375 C-0.16870396 83.07379488 7.10467105 80.1033095 14.75 75.375 C15.74 73.89 15.74 73.89 16.75 72.375 C15.76 72.045 14.77 71.715 13.75 71.375 C14.26949219 71.02308594 14.78898438 70.67117188 15.32421875 70.30859375 C22.24489149 65.40911563 26.47907971 60.6560283 28.75 52.375 C29.10240892 49.58732863 29.25321287 46.80617849 29.375 44 C29.41367187 43.26394531 29.45234375 42.52789063 29.4921875 41.76953125 C29.58557998 39.97172594 29.6688371 38.17339892 29.75 36.375 C30.08 36.375 30.41 36.375 30.75 36.375 C30.75 41.325 30.75 46.275 30.75 51.375 C31.41 51.375 32.07 51.375 32.75 51.375 C32.30021343 39.60299979 31.87106118 30.37401374 23.75 21.375 C23.75 20.715 23.75 20.055 23.75 19.375 C23.110625 19.106875 22.47125 18.83875 21.8125 18.5625 C19.75 17.375 19.75 17.375 18.75 14.375 C15.82085835 13.20417122 15.82085835 13.20417122 12.75 12.375 C12.09 12.045 11.43 11.715 10.75 11.375 C10.75 10.715 10.75 10.055 10.75 9.375 C10.0075 9.25125 9.265 9.1275 8.5 9 C5.75 8.375 5.75 8.375 4 7.40625 C1.04003255 6.04959825 -1.7811159 5.70064377 -5 5.25 C-6.17046875 5.08242188 -7.3409375 4.91484375 -8.546875 4.7421875 C-9.88492188 4.56042969 -9.88492188 4.56042969 -11.25 4.375 C-11.25 3.055 -11.25 1.735 -11.25 0.375 C-17.19 0.87 -17.19 0.87 -23.25 1.375 C-17.22865771 -2.63922819 -6.99617418 -1.10406613 0 0 Z " fill="#C2C1C6" transform="translate(638.25,470.625)"/>
<path d="M0 0 C6.74571503 4.03980674 9.69896393 8.96607848 11.93359375 16.359375 C12.44921875 19.0546875 12.44921875 19.0546875 12.44921875 26.0546875 C2.21921875 26.0546875 -8.01078125 26.0546875 -18.55078125 26.0546875 C-16.22826699 30.93964275 -16.22826699 30.93964275 -13.55078125 32.0546875 C-11.47513449 32.25226981 -11.47513449 32.25226981 -9.17578125 32.2421875 C-8.40492188 32.25636719 -7.6340625 32.27054688 -6.83984375 32.28515625 C-4.50783577 32.19492725 -4.50783577 32.19492725 -2.51171875 30.98046875 C-0.55078125 30.0546875 -0.55078125 30.0546875 1.49609375 30.20703125 C3.9345041 31.26530134 5.04551261 32.55005482 6.69921875 34.6171875 C7.48039062 35.57818359 7.48039062 35.57818359 8.27734375 36.55859375 C8.6640625 37.05230469 9.05078125 37.54601562 9.44921875 38.0546875 C2.7691385 43.94887596 -3.47343051 44.52863036 -12.140625 44.35546875 C-18.0727944 43.8322419 -21.54605098 42.2591077 -25.55078125 37.85546875 C-31.78995495 30.04392265 -32.45733692 23.91475371 -31.55078125 14.0546875 C-30.38593429 10.84531661 -28.8277967 8.57500049 -26.55078125 6.0546875 C-25.72578125 5.1059375 -24.90078125 4.1571875 -24.05078125 3.1796875 C-17.65432208 -2.25730279 -7.76922923 -2.87925494 0 0 Z " fill="#F4F4F4" transform="translate(499.55078125,545.9453125)"/>
<path d="M0 0 C4.8577204 2.88862533 9.3228808 6.77465732 11.2265625 12.2265625 C12.41880877 17.06954908 12.48046875 20.94685874 12.48046875 26.08984375 C2.58046875 26.41984375 -7.31953125 26.74984375 -17.51953125 27.08984375 C-14.3162094 32.12706777 -14.3162094 32.12706777 -11.30078125 32.6484375 C-10.1715625 32.58849609 -10.1715625 32.58849609 -9.01953125 32.52734375 C-8.26671875 32.50542969 -7.51390625 32.48351562 -6.73828125 32.4609375 C-4.34405599 32.0604949 -2.65441964 31.21394634 -0.51953125 30.08984375 C2.80302869 30.1970231 3.73846507 31.33024941 6.23046875 33.65234375 C7.34421875 34.85890625 7.34421875 34.85890625 8.48046875 36.08984375 C6.83956989 39.91860777 4.93575965 41.56019345 1.0859375 43.3203125 C-5.92797238 45.39188708 -13.88298602 45.38639625 -20.51953125 42.15234375 C-25.9637303 38.60752012 -29.4860657 33.19024039 -31.51953125 27.08984375 C-32.18887446 19.68317711 -32.17073389 13.16488393 -27.51953125 7.08984375 C-19.99768467 -0.7286882 -10.73135673 -3.87659863 0 0 Z " fill="#F5F5F5" transform="translate(549.51953125,545.91015625)"/>
<path d="M0 0 C6.19376775 3.91850613 9.3714389 8.61331177 11.6171875 15.53125 C12.0625 17.9375 12.0625 17.9375 12.0625 24.9375 C1.8325 24.9375 -8.3975 24.9375 -18.9375 24.9375 C-16.38214865 29.65454177 -16.38214865 29.65454177 -13.9375 31.9375 C-11.60189849 32.25673475 -11.60189849 32.25673475 -9 32.1875 C-8.12472656 32.19265625 -7.24945313 32.1978125 -6.34765625 32.203125 C-3.67644366 32.09583837 -3.67644366 32.09583837 -0.9375 29.9375 C2.25818047 30.04402268 3.35207321 31.18758596 5.8125 33.3125 C8.0625 35.9375 8.0625 35.9375 8.0625 38.9375 C0.4209915 43.5823385 -5.96882627 44.64725116 -14.9375 43.9375 C-20.83843759 42.09950305 -25.71557773 39.22566979 -29.19921875 34.0703125 C-32.56909335 27.61434222 -32.71151907 21.08301754 -31.9375 13.9375 C-29.84484485 7.76967429 -25.29708653 3.51055769 -19.9375 -0.0625 C-13.95923813 -2.05525396 -5.98020904 -2.19050353 0 0 Z " fill="#F5F5F5" transform="translate(453.9375,483.0625)"/>
<path d="M0 0 C0.99 0.66 1.98 1.32 3 2 C3.92122007 9.10230954 0.13648922 13.58522071 -4 19 C-10.18161778 26.10509117 -16.60679322 31.70614912 -25 36 C-25.6909375 36.37253906 -26.381875 36.74507812 -27.09375 37.12890625 C-29.88736898 38.40549853 -31.9748814 38.38618535 -35 38 C-37.23248807 35.76751193 -37.94643473 34.37233111 -38.3984375 31.23046875 C-38.31865867 20.87251689 -35.80826271 14.04867585 -28.5 6.375 C-20.51098717 0.18802014 -9.78469883 -1.21076849 0 0 Z " fill="#F9F9F9" transform="translate(630,485)"/>
<path d="M0 0 C-0.38320557 2.68243901 -1.07152381 4.09801411 -2.6875 6.3125 C-5 8 -5 8 -8.125 7.8125 C-11 7 -11 7 -13 6 C-18.22952901 5.23103324 -18.22952901 5.23103324 -22.859375 7.28125 C-25.71732434 10.27529217 -27.38302897 12.87640112 -27.625 17.0625 C-26.93676027 21.3984103 -25.78402254 23.64279635 -23 27 C-20.53630468 28.23184766 -18.8105499 28.16732342 -16.0625 28.1875 C-15.18722656 28.20167969 -14.31195313 28.21585938 -13.41015625 28.23046875 C-10.73755665 28.16663349 -10.73755665 28.16663349 -8 26 C-6.125 26 -6.125 26 -4 27 C-2.15731643 28.90059648 -0.6156982 30.89061623 1 33 C-5.56471533 38.80137634 -10.20636724 40.42364966 -19.0625 40.25 C-25.4754412 39.70421777 -30.64954853 36.76876411 -35 32 C-39.40408654 26.3558154 -40.87397627 21.07139851 -40.546875 13.9296875 C-39.23911812 6.92384708 -34.32600417 1.48434539 -28.84375 -2.84375 C-19.54735519 -8.67369251 -8.5577115 -5.705141 0 0 Z " fill="#F3F3F3" transform="translate(512,487)"/>
<path d="M0 0 C1.81324186 1.54196946 2.56218949 3.0940995 3.48828125 5.265625 C1.50828125 7.245625 -0.47171875 9.225625 -2.51171875 11.265625 C-7.26171875 9.390625 -7.26171875 9.390625 -9.51171875 8.265625 C-14.02996457 7.64547361 -16.81304872 8.0277316 -20.44921875 10.703125 C-23.17826019 13.29111486 -24.00473736 15.06979772 -24.13671875 18.828125 C-23.72796947 23.69224146 -22.13820633 26.58104857 -18.76171875 30.078125 C-15.51000311 31.79430826 -13.13711713 31.64724588 -9.51171875 31.265625 C-8.62484375 30.729375 -7.73796875 30.193125 -6.82421875 29.640625 C-4.51171875 28.265625 -4.51171875 28.265625 -2.51171875 28.765625 C0.07715015 30.70727667 2.26544274 32.91929546 4.48828125 35.265625 C3.19810711 36.24675743 1.90609019 37.22546699 0.61328125 38.203125 C-0.10601562 38.74839844 -0.8253125 39.29367187 -1.56640625 39.85546875 C-7.01195125 43.80294214 -14.07741719 42.85056151 -20.51171875 42.265625 C-27.39470779 39.86072522 -31.31396726 34.44857544 -35.32421875 28.640625 C-37.46869532 22.54579686 -37.42012942 16.09772885 -35.44921875 9.953125 C-26.8601424 -1.9607551 -13.9168735 -7.50974758 0 0 Z " fill="#F6F6F6" transform="translate(458.51171875,547.734375)"/>
<path d="M0 0 C1.8871875 0.0309375 1.8871875 0.0309375 3.8125 0.0625 C3.8125 0.7225 3.8125 1.3825 3.8125 2.0625 C4.59625 2.31 5.38 2.5575 6.1875 2.8125 C8.8125 4.0625 8.8125 4.0625 10.125 5.6875 C11.65241887 10.96403792 11.55644615 14.67722097 9 19.4375 C6.71036282 22.18506462 5.10896394 23.85374733 1.5078125 24.43359375 C-5.45292605 24.61343046 -5.45292605 24.61343046 -9.1875 21.8125 C-12.66360445 17.03285639 -14.01403391 14.15818759 -13.1875 8.0625 C-9.76799061 2.61501658 -6.5877833 -0.10799645 0 0 Z " fill="#161415" transform="translate(542.1875,491.9375)"/>
<path d="M0 0 C11.91250341 2.82971426 22.81218488 11.40189076 29.75 21.375 C31.30743789 24.3003192 32.5943936 27.27062099 33.75 30.375 C34.11351562 31.28378906 34.47703125 32.19257813 34.8515625 33.12890625 C35.95273998 37.10750836 35.97137934 40.65017125 35.875 44.75 C35.86597656 45.48605469 35.85695313 46.22210937 35.84765625 46.98046875 C35.82430144 48.7787888 35.78843836 50.57693911 35.75 52.375 C35.42 52.375 35.09 52.375 34.75 52.375 C34.42 46.765 34.09 41.155 33.75 35.375 C33.09 35.375 32.43 35.375 31.75 35.375 C31.358125 34.17875 30.96625 32.9825 30.5625 31.75 C28.98490133 27.47228053 26.74307284 24.77254214 23.75 21.375 C23.75 20.715 23.75 20.055 23.75 19.375 C23.110625 19.106875 22.47125 18.83875 21.8125 18.5625 C19.75 17.375 19.75 17.375 18.75 14.375 C15.82085835 13.20417122 15.82085835 13.20417122 12.75 12.375 C12.09 12.045 11.43 11.715 10.75 11.375 C10.75 10.715 10.75 10.055 10.75 9.375 C10.0075 9.25125 9.265 9.1275 8.5 9 C5.75 8.375 5.75 8.375 4 7.40625 C1.04003255 6.04959825 -1.7811159 5.70064377 -5 5.25 C-6.17046875 5.08242188 -7.3409375 4.91484375 -8.546875 4.7421875 C-9.88492188 4.56042969 -9.88492188 4.56042969 -11.25 4.375 C-11.25 3.055 -11.25 1.735 -11.25 0.375 C-17.19 0.87 -17.19 0.87 -23.25 1.375 C-17.22865771 -2.63922819 -6.99617418 -1.10406613 0 0 Z " fill="#BEBEC2" transform="translate(638.25,470.625)"/>
<path d="M0 0 C2.4375 1.5625 2.4375 1.5625 4 4 C4.56288002 7.94016013 4.60396028 10.05782196 2.4375 13.4375 C-0.94217804 15.60396028 -3.05983987 15.56288002 -7 15 C-9.4375 13.4375 -9.4375 13.4375 -11 11 C-11.56288002 7.05983987 -11.60396028 4.94217804 -9.4375 1.5625 C-6.05782196 -0.60396028 -3.94016013 -0.56288002 0 0 Z " fill="#F3F3F3" transform="translate(581,575)"/>
<path d="M0 0 C0.66 0 1.32 0 2 0 C2 0.66 2 1.32 2 2 C3.2684375 2.309375 3.2684375 2.309375 4.5625 2.625 C12.19846881 5.67938752 17.64389836 12.17151635 22 19 C24.90568356 26.32737594 24.18209013 34.23082103 24 42 C23.34 42 22.68 42 22 42 C21.97421875 41.02160156 21.9484375 40.04320312 21.921875 39.03515625 C21.39606288 26.88172604 19.106248 18.51033811 10 10 C4.56780971 5.65198906 -1.31326551 3.68538595 -8 2 C-4.98968256 1.06576355 -4.13349732 0.95550089 -1 2 C-0.67 1.34 -0.34 0.68 0 0 Z " fill="#DADADB" transform="translate(647,480)"/>
<path d="M0 0 C2.625 1.8125 2.625 1.8125 4 4 C4 4.99 4 5.98 4 7 C-2.27 7 -8.54 7 -15 7 C-11.88366592 -0.7908352 -7.69431924 -1.04521849 0 0 Z " fill="#2B292A" transform="translate(496,556)"/>
<path d="M0 0 C2.9375 1.25 2.9375 1.25 5 3 C5.33 4.32 5.66 5.64 6 7 C-0.27 7 -6.54 7 -13 7 C-10.19224638 -0.01938406 -7.15892208 -0.9070759 0 0 Z " fill="#131112" transform="translate(544,556)"/>
<path d="M0 0 C1.875 2 1.875 2 3 4 C0.69 4 -1.62 4 -4 4 C-3.67 5.32 -3.34 6.64 -3 8 C-0.03 8.495 -0.03 8.495 3 9 C2.01 10.32 1.02 11.64 0 13 C-6.75 12.125 -6.75 12.125 -9 11 C-9.36180905 3.64321608 -9.36180905 3.64321608 -7.875 1 C-5.06836961 -0.49686954 -3.12242157 -0.45535315 0 0 Z " fill="#2E2B33" transform="translate(630,565)"/>
<path d="M0 0 C4.07554985 0.05898046 4.95031166 0.25249309 8.3125 2.875 C10.1875 5.4375 10.1875 5.4375 10.1875 6.4375 C4.2475 6.4375 -1.6925 6.4375 -7.8125 6.4375 C-6.45987129 1.02698517 -5.33815596 0.13605495 0 0 Z " fill="#1D1B1C" transform="translate(443.8125,492.5625)"/>
<path d="M0 0 C0.33 0 0.66 0 1 0 C2.76948888 18.76084599 2.76948888 18.76084599 -1 25 C-3.11328125 25.6875 -3.11328125 25.6875 -5 26 C-4.72285156 25.46375 -4.44570313 24.9275 -4.16015625 24.375 C-0.4596186 16.36814274 -0.2151361 8.66998469 0 0 Z " fill="#B0B0B0" transform="translate(668,507)"/>
<path d="M0 0 C0.66 0 1.32 0 2 0 C5.58231402 8.35873272 5.29551415 16.07985057 5 25 C4.67 25 4.34 25 4 25 C3.67 19.39 3.34 13.78 3 8 C2.34 8 1.68 8 1 8 C-0.35439668 5.29120665 -0.06501451 2.99066732 0 0 Z " fill="#97969A" transform="translate(669,498)"/>
<path d="M0 0 C0.66 0.33 1.32 0.66 2 1 C0.68 2.32 -0.64 3.64 -2 5 C3.28 5.33 8.56 5.66 14 6 C14 6.33 14 6.66 14 7 C7.73 7 1.46 7 -5 7 C-3 2 -3 2 0 0 Z " fill="#565455" transform="translate(536,556)"/>
<path d="M0 0 C0.66 0.33 1.32 0.66 2 1 C-1.96 4.96 -5.92 8.92 -10 13 C-10.66 12.67 -11.32 12.34 -12 12 C-8.27653164 7.57905197 -4.70478962 3.42166518 0 0 Z " fill="#CCCBCC" transform="translate(601,477)"/>
<path d="M0 0 C1.32 0.66 2.64 1.32 4 2 C3.42655063 4.86724686 3.1385485 5.8614515 1 8 C-0.5625 6.75 -0.5625 6.75 -2 5 C-1.74853421 2.86254078 -1.54074221 1.54074221 0 0 Z " fill="#CDCDCD" transform="translate(577,555)"/>
<path d="M0 0 C1.25425781 0.01804687 2.50851562 0.03609375 3.80078125 0.0546875 C5.22970703 0.08949219 5.22970703 0.08949219 6.6875 0.125 C3.75169434 2.08220377 2.78927164 2.42695175 -0.54296875 2.7578125 C-1.34541016 2.84160156 -2.14785156 2.92539062 -2.97460938 3.01171875 C-4.22467773 3.12966797 -4.22467773 3.12966797 -5.5 3.25 C-6.34498047 3.33636719 -7.18996094 3.42273438 -8.06054688 3.51171875 C-10.14378923 3.7235739 -12.22806042 3.92526777 -14.3125 4.125 C-10.10830626 -0.07919374 -5.73618374 -0.10721839 0 0 Z " fill="#555457" transform="translate(653.3125,557.875)"/>
<path d="M0 0 C1.65 0 3.3 0 5 0 C5 1.98 5 3.96 5 6 C3.35 6 1.7 6 0 6 C0 4.02 0 2.04 0 0 Z " fill="#D1D0D1" transform="translate(570,535)"/>
<path d="M0 0 C0.66 0 1.32 0 2 0 C0.5682479 5.01113235 -1.98445693 6.94469549 -6 10 C-6.33 9.34 -6.66 8.68 -7 8 C-5.88200014 6.66079162 -4.75538103 5.32877444 -3.625 4 C-2.68527344 2.88625 -2.68527344 2.88625 -1.7265625 1.75 C-1.15679688 1.1725 -0.58703125 0.595 0 0 Z " fill="#E5E5E6" transform="translate(663,533)"/>
<path d="M0 0 C0 1.65 0 3.3 0 5 C-1.98 5.99 -1.98 5.99 -4 7 C-4.33 5.02 -4.66 3.04 -5 1 C-2 0 -2 0 0 0 Z " fill="#D5D5D6" transform="translate(575,546)"/>
<path d="M0 0 C0.66 0 1.32 0 2 0 C2.33 2.31 2.66 4.62 3 7 C1.35 6.67 -0.3 6.34 -2 6 C-1.125 1.125 -1.125 1.125 0 0 Z " fill="#CAC9CB" transform="translate(575,523)"/>
<path d="M0 0 C0.99 0 1.98 0 3 0 C3 1.98 3 3.96 3 6 C1.35 5.67 -0.3 5.34 -2 5 C-1.34 3.35 -0.68 1.7 0 0 Z " fill="#D9D9DA" transform="translate(585,562)"/>
<path d="M0 0 C0.66 0 1.32 0 2 0 C2.66 1.98 3.32 3.96 4 6 C3.01 6.99 2.02 7.98 1 9 C0 8 0 8 -0.09765625 6.15234375 C-0.06510417 4.1015625 -0.03255208 2.05078125 0 0 Z " fill="#3E3D40" transform="translate(649,570)"/>
<path d="M0 0 C0.66 0.33 1.32 0.66 2 1 C0.71451591 2.33929505 -0.57858155 3.67128643 -1.875 5 C-2.59429688 5.7425 -3.31359375 6.485 -4.0546875 7.25 C-6 9 -6 9 -8 9 C-6.4169423 4.7257442 -3.49431596 2.73468206 0 0 Z " fill="#C8C7C8" transform="translate(605,489)"/>
<path d="M0 0 C2 1 2 1 3.125 4.0625 C3.41375 5.031875 3.7025 6.00125 4 7 C3.01 7 2.02 7 1 7 C0.34 6.34 -0.32 5.68 -1 5 C-0.625 2.375 -0.625 2.375 0 0 Z " fill="#AFADB2" transform="translate(666,491)"/>
</svg>
